<mxfile host="Electron" modified="2024-02-28T04:21:41.115Z" agent="Mozilla/5.0 (Windows NT 10.0; Win64; x64) AppleWebKit/537.36 (KHTML, like Gecko) draw.io/21.2.8 Chrome/112.0.5615.165 Electron/24.2.0 Safari/537.36" etag="AKHKgh0QI3pa9_upLo7f" version="21.2.8" type="device">
  <diagram name="第 1 页" id="lH6c7X6NaJOr4BjVsxPA">
    <mxGraphModel dx="1036" dy="606" grid="1" gridSize="10" guides="1" tooltips="1" connect="1" arrows="1" fold="1" page="1" pageScale="1" pageWidth="827" pageHeight="1169" math="0" shadow="0">
      <root>
        <mxCell id="0" />
        <mxCell id="1" parent="0" />
        <mxCell id="pgVwH1cybltZk0aZfg3d-78" value="" style="rounded=0;whiteSpace=wrap;html=1;" parent="1" vertex="1">
          <mxGeometry x="384" y="350" width="300" height="205" as="geometry" />
        </mxCell>
        <mxCell id="pgVwH1cybltZk0aZfg3d-1" value="root" style="ellipse;whiteSpace=wrap;html=1;aspect=fixed;" parent="1" vertex="1">
          <mxGeometry x="384" y="90" width="30" height="30" as="geometry" />
        </mxCell>
        <mxCell id="pgVwH1cybltZk0aZfg3d-3" value="" style="endArrow=none;html=1;rounded=0;exitX=0.5;exitY=0;exitDx=0;exitDy=0;" parent="1" source="pgVwH1cybltZk0aZfg3d-30" edge="1">
          <mxGeometry width="50" height="50" relative="1" as="geometry">
            <mxPoint x="560" y="160" as="sourcePoint" />
            <mxPoint x="400" y="120" as="targetPoint" />
          </mxGeometry>
        </mxCell>
        <mxCell id="pgVwH1cybltZk0aZfg3d-7" value="" style="endArrow=none;html=1;rounded=0;" parent="1" edge="1">
          <mxGeometry width="50" height="50" relative="1" as="geometry">
            <mxPoint x="280" y="160" as="sourcePoint" />
            <mxPoint x="400" y="120" as="targetPoint" />
          </mxGeometry>
        </mxCell>
        <mxCell id="pgVwH1cybltZk0aZfg3d-21" value="a=1" style="ellipse;whiteSpace=wrap;html=1;aspect=fixed;" parent="1" vertex="1">
          <mxGeometry x="264" y="160" width="30" height="30" as="geometry" />
        </mxCell>
        <mxCell id="pgVwH1cybltZk0aZfg3d-22" value="" style="endArrow=none;html=1;rounded=0;" parent="1" edge="1">
          <mxGeometry width="50" height="50" relative="1" as="geometry">
            <mxPoint x="300" y="220" as="sourcePoint" />
            <mxPoint x="280" y="190" as="targetPoint" />
          </mxGeometry>
        </mxCell>
        <mxCell id="pgVwH1cybltZk0aZfg3d-23" value="" style="endArrow=none;html=1;rounded=0;" parent="1" edge="1">
          <mxGeometry width="50" height="50" relative="1" as="geometry">
            <mxPoint x="240" y="230" as="sourcePoint" />
            <mxPoint x="280" y="190" as="targetPoint" />
          </mxGeometry>
        </mxCell>
        <mxCell id="pgVwH1cybltZk0aZfg3d-24" value="d=7" style="ellipse;whiteSpace=wrap;html=1;aspect=fixed;" parent="1" vertex="1">
          <mxGeometry x="390" y="160" width="30" height="30" as="geometry" />
        </mxCell>
        <mxCell id="pgVwH1cybltZk0aZfg3d-25" value="" style="endArrow=none;html=1;rounded=0;" parent="1" edge="1">
          <mxGeometry width="50" height="50" relative="1" as="geometry">
            <mxPoint x="436" y="230" as="sourcePoint" />
            <mxPoint x="406" y="190" as="targetPoint" />
          </mxGeometry>
        </mxCell>
        <mxCell id="pgVwH1cybltZk0aZfg3d-26" value="" style="endArrow=none;html=1;rounded=0;" parent="1" edge="1">
          <mxGeometry width="50" height="50" relative="1" as="geometry">
            <mxPoint x="380" y="230" as="sourcePoint" />
            <mxPoint x="406" y="190" as="targetPoint" />
          </mxGeometry>
        </mxCell>
        <mxCell id="pgVwH1cybltZk0aZfg3d-27" value="" style="ellipse;whiteSpace=wrap;html=1;aspect=fixed;" parent="1" vertex="1">
          <mxGeometry x="544" y="160" width="30" height="30" as="geometry" />
        </mxCell>
        <mxCell id="pgVwH1cybltZk0aZfg3d-28" value="" style="endArrow=none;html=1;rounded=0;" parent="1" edge="1">
          <mxGeometry width="50" height="50" relative="1" as="geometry">
            <mxPoint x="600" y="230" as="sourcePoint" />
            <mxPoint x="560" y="190" as="targetPoint" />
          </mxGeometry>
        </mxCell>
        <mxCell id="pgVwH1cybltZk0aZfg3d-29" value="" style="endArrow=none;html=1;rounded=0;" parent="1" edge="1">
          <mxGeometry width="50" height="50" relative="1" as="geometry">
            <mxPoint x="520" y="230" as="sourcePoint" />
            <mxPoint x="560" y="190" as="targetPoint" />
          </mxGeometry>
        </mxCell>
        <mxCell id="pgVwH1cybltZk0aZfg3d-30" value="" style="ellipse;whiteSpace=wrap;html=1;aspect=fixed;" parent="1" vertex="1">
          <mxGeometry x="664" y="160" width="30" height="30" as="geometry" />
        </mxCell>
        <mxCell id="pgVwH1cybltZk0aZfg3d-31" value="" style="endArrow=none;html=1;rounded=0;" parent="1" edge="1">
          <mxGeometry width="50" height="50" relative="1" as="geometry">
            <mxPoint x="720" y="230" as="sourcePoint" />
            <mxPoint x="680" y="190" as="targetPoint" />
          </mxGeometry>
        </mxCell>
        <mxCell id="pgVwH1cybltZk0aZfg3d-32" value="" style="endArrow=none;html=1;rounded=0;" parent="1" edge="1">
          <mxGeometry width="50" height="50" relative="1" as="geometry">
            <mxPoint x="640" y="230" as="sourcePoint" />
            <mxPoint x="680" y="190" as="targetPoint" />
          </mxGeometry>
        </mxCell>
        <mxCell id="pgVwH1cybltZk0aZfg3d-33" value="" style="endArrow=none;html=1;rounded=0;exitX=0.5;exitY=0;exitDx=0;exitDy=0;" parent="1" source="pgVwH1cybltZk0aZfg3d-24" edge="1">
          <mxGeometry width="50" height="50" relative="1" as="geometry">
            <mxPoint x="360" y="160" as="sourcePoint" />
            <mxPoint x="400" y="120" as="targetPoint" />
          </mxGeometry>
        </mxCell>
        <mxCell id="pgVwH1cybltZk0aZfg3d-34" value="" style="endArrow=none;html=1;rounded=0;exitX=0.655;exitY=0.021;exitDx=0;exitDy=0;exitPerimeter=0;" parent="1" source="pgVwH1cybltZk0aZfg3d-27" edge="1">
          <mxGeometry width="50" height="50" relative="1" as="geometry">
            <mxPoint x="460" y="160" as="sourcePoint" />
            <mxPoint x="400" y="120" as="targetPoint" />
          </mxGeometry>
        </mxCell>
        <mxCell id="pgVwH1cybltZk0aZfg3d-35" value="tree[0]" style="rounded=0;whiteSpace=wrap;html=1;fillColor=#dae8fc;strokeColor=#6c8ebf;" parent="1" vertex="1">
          <mxGeometry y="150" width="100" height="30" as="geometry" />
        </mxCell>
        <mxCell id="pgVwH1cybltZk0aZfg3d-36" value="b=2" style="ellipse;whiteSpace=wrap;html=1;aspect=fixed;" parent="1" vertex="1">
          <mxGeometry x="224" y="220" width="30" height="30" as="geometry" />
        </mxCell>
        <mxCell id="pgVwH1cybltZk0aZfg3d-37" value="" style="endArrow=none;html=1;rounded=0;" parent="1" edge="1">
          <mxGeometry width="50" height="50" relative="1" as="geometry">
            <mxPoint x="260" y="290" as="sourcePoint" />
            <mxPoint x="240" y="250" as="targetPoint" />
          </mxGeometry>
        </mxCell>
        <mxCell id="pgVwH1cybltZk0aZfg3d-38" value="" style="endArrow=none;html=1;rounded=0;" parent="1" edge="1">
          <mxGeometry width="50" height="50" relative="1" as="geometry">
            <mxPoint x="200" y="290" as="sourcePoint" />
            <mxPoint x="240" y="250" as="targetPoint" />
          </mxGeometry>
        </mxCell>
        <mxCell id="pgVwH1cybltZk0aZfg3d-39" value="b=3" style="ellipse;whiteSpace=wrap;html=1;aspect=fixed;" parent="1" vertex="1">
          <mxGeometry x="184" y="290" width="30" height="30" as="geometry" />
        </mxCell>
        <mxCell id="pgVwH1cybltZk0aZfg3d-40" value="" style="endArrow=none;html=1;rounded=0;" parent="1" edge="1">
          <mxGeometry width="50" height="50" relative="1" as="geometry">
            <mxPoint x="240" y="360" as="sourcePoint" />
            <mxPoint x="200" y="320" as="targetPoint" />
          </mxGeometry>
        </mxCell>
        <mxCell id="pgVwH1cybltZk0aZfg3d-41" value="" style="endArrow=none;html=1;rounded=0;" parent="1" edge="1">
          <mxGeometry width="50" height="50" relative="1" as="geometry">
            <mxPoint x="160" y="360" as="sourcePoint" />
            <mxPoint x="200" y="320" as="targetPoint" />
          </mxGeometry>
        </mxCell>
        <mxCell id="pgVwH1cybltZk0aZfg3d-42" value="tree[1]" style="rounded=0;whiteSpace=wrap;html=1;fillColor=#dae8fc;strokeColor=#6c8ebf;" parent="1" vertex="1">
          <mxGeometry y="200" width="100" height="30" as="geometry" />
        </mxCell>
        <mxCell id="pgVwH1cybltZk0aZfg3d-43" value="tree[2]" style="rounded=0;whiteSpace=wrap;html=1;fillColor=#dae8fc;strokeColor=#6c8ebf;" parent="1" vertex="1">
          <mxGeometry y="230" width="100" height="30" as="geometry" />
        </mxCell>
        <mxCell id="pgVwH1cybltZk0aZfg3d-44" value="tree[3]" style="rounded=0;whiteSpace=wrap;html=1;fillColor=#dae8fc;strokeColor=#6c8ebf;" parent="1" vertex="1">
          <mxGeometry y="260" width="100" height="30" as="geometry" />
        </mxCell>
        <mxCell id="pgVwH1cybltZk0aZfg3d-46" value="" style="endArrow=classic;html=1;rounded=0;entryX=1;entryY=0.5;entryDx=0;entryDy=0;exitX=0;exitY=0.5;exitDx=0;exitDy=0;fillColor=#dae8fc;strokeColor=#6c8ebf;" parent="1" source="pgVwH1cybltZk0aZfg3d-21" target="pgVwH1cybltZk0aZfg3d-42" edge="1">
          <mxGeometry width="50" height="50" relative="1" as="geometry">
            <mxPoint x="174" y="210" as="sourcePoint" />
            <mxPoint x="224" y="160" as="targetPoint" />
          </mxGeometry>
        </mxCell>
        <mxCell id="pgVwH1cybltZk0aZfg3d-47" value="" style="endArrow=classic;html=1;rounded=0;entryX=1;entryY=0.5;entryDx=0;entryDy=0;exitX=0;exitY=0.5;exitDx=0;exitDy=0;fillColor=#dae8fc;strokeColor=#6c8ebf;" parent="1" source="pgVwH1cybltZk0aZfg3d-36" target="pgVwH1cybltZk0aZfg3d-43" edge="1">
          <mxGeometry width="50" height="50" relative="1" as="geometry">
            <mxPoint x="274" y="185" as="sourcePoint" />
            <mxPoint x="110" y="225" as="targetPoint" />
          </mxGeometry>
        </mxCell>
        <mxCell id="pgVwH1cybltZk0aZfg3d-48" value="" style="endArrow=classic;html=1;rounded=0;entryX=1;entryY=0.5;entryDx=0;entryDy=0;exitX=0;exitY=0.5;exitDx=0;exitDy=0;fillColor=#dae8fc;strokeColor=#6c8ebf;" parent="1" source="pgVwH1cybltZk0aZfg3d-39" target="pgVwH1cybltZk0aZfg3d-44" edge="1">
          <mxGeometry width="50" height="50" relative="1" as="geometry">
            <mxPoint x="284" y="195" as="sourcePoint" />
            <mxPoint x="120" y="235" as="targetPoint" />
          </mxGeometry>
        </mxCell>
        <mxCell id="pgVwH1cybltZk0aZfg3d-49" value="插入abb，acb，dbb,dcb" style="rounded=0;whiteSpace=wrap;html=1;fillColor=#f8cecc;strokeColor=#b85450;" parent="1" vertex="1">
          <mxGeometry x="190" y="90" width="130" height="50" as="geometry" />
        </mxCell>
        <mxCell id="pgVwH1cybltZk0aZfg3d-50" value="每个树节点对应数组的一项，用于记录该节点下的子节点" style="rounded=0;whiteSpace=wrap;html=1;fillColor=#f8cecc;strokeColor=#b85450;" parent="1" vertex="1">
          <mxGeometry y="380" width="330" height="40" as="geometry" />
        </mxCell>
        <mxCell id="pgVwH1cybltZk0aZfg3d-51" value="c=4" style="ellipse;whiteSpace=wrap;html=1;aspect=fixed;" parent="1" vertex="1">
          <mxGeometry x="290" y="220" width="30" height="30" as="geometry" />
        </mxCell>
        <mxCell id="pgVwH1cybltZk0aZfg3d-52" value="" style="endArrow=none;html=1;rounded=0;" parent="1" edge="1">
          <mxGeometry width="50" height="50" relative="1" as="geometry">
            <mxPoint x="290" y="300" as="sourcePoint" />
            <mxPoint x="300" y="250" as="targetPoint" />
          </mxGeometry>
        </mxCell>
        <mxCell id="pgVwH1cybltZk0aZfg3d-54" value="" style="endArrow=none;html=1;rounded=0;" parent="1" edge="1">
          <mxGeometry width="50" height="50" relative="1" as="geometry">
            <mxPoint x="330" y="290" as="sourcePoint" />
            <mxPoint x="310" y="250" as="targetPoint" />
          </mxGeometry>
        </mxCell>
        <mxCell id="pgVwH1cybltZk0aZfg3d-55" value="b=5" style="ellipse;whiteSpace=wrap;html=1;aspect=fixed;" parent="1" vertex="1">
          <mxGeometry x="270" y="300" width="26" height="26" as="geometry" />
        </mxCell>
        <mxCell id="pgVwH1cybltZk0aZfg3d-56" value="b=8" style="ellipse;whiteSpace=wrap;html=1;aspect=fixed;" parent="1" vertex="1">
          <mxGeometry x="360" y="230" width="30" height="30" as="geometry" />
        </mxCell>
        <mxCell id="pgVwH1cybltZk0aZfg3d-57" value="tree[4]" style="rounded=0;whiteSpace=wrap;html=1;fillColor=#dae8fc;strokeColor=#6c8ebf;" parent="1" vertex="1">
          <mxGeometry y="290" width="100" height="30" as="geometry" />
        </mxCell>
        <mxCell id="pgVwH1cybltZk0aZfg3d-58" value="tree[5]" style="rounded=0;whiteSpace=wrap;html=1;fillColor=#dae8fc;strokeColor=#6c8ebf;" parent="1" vertex="1">
          <mxGeometry y="320" width="100" height="30" as="geometry" />
        </mxCell>
        <mxCell id="pgVwH1cybltZk0aZfg3d-59" value="tree[6]" style="rounded=0;whiteSpace=wrap;html=1;fillColor=#dae8fc;strokeColor=#6c8ebf;" parent="1" vertex="1">
          <mxGeometry y="350" width="100" height="30" as="geometry" />
        </mxCell>
        <mxCell id="pgVwH1cybltZk0aZfg3d-60" value="" style="endArrow=classic;html=1;rounded=0;entryX=1;entryY=0.5;entryDx=0;entryDy=0;exitX=0.01;exitY=0.642;exitDx=0;exitDy=0;exitPerimeter=0;fillColor=#e51400;strokeColor=#B20000;" parent="1" source="pgVwH1cybltZk0aZfg3d-51" target="pgVwH1cybltZk0aZfg3d-57" edge="1">
          <mxGeometry width="50" height="50" relative="1" as="geometry">
            <mxPoint x="240" y="280" as="sourcePoint" />
            <mxPoint x="290" y="230" as="targetPoint" />
          </mxGeometry>
        </mxCell>
        <mxCell id="pgVwH1cybltZk0aZfg3d-64" value="" style="endArrow=classic;html=1;rounded=0;entryX=1;entryY=0.5;entryDx=0;entryDy=0;exitX=0;exitY=0.5;exitDx=0;exitDy=0;fillColor=#e51400;strokeColor=#B20000;" parent="1" source="pgVwH1cybltZk0aZfg3d-55" target="pgVwH1cybltZk0aZfg3d-58" edge="1">
          <mxGeometry width="50" height="50" relative="1" as="geometry">
            <mxPoint x="300" y="249" as="sourcePoint" />
            <mxPoint x="110" y="315" as="targetPoint" />
          </mxGeometry>
        </mxCell>
        <mxCell id="pgVwH1cybltZk0aZfg3d-66" value="d=7" style="ellipse;whiteSpace=wrap;html=1;aspect=fixed;" parent="1" vertex="1">
          <mxGeometry x="526" y="360" width="30" height="30" as="geometry" />
        </mxCell>
        <mxCell id="pgVwH1cybltZk0aZfg3d-67" value="" style="endArrow=none;html=1;rounded=0;" parent="1" edge="1">
          <mxGeometry width="50" height="50" relative="1" as="geometry">
            <mxPoint x="586" y="420" as="sourcePoint" />
            <mxPoint x="542" y="390" as="targetPoint" />
          </mxGeometry>
        </mxCell>
        <mxCell id="pgVwH1cybltZk0aZfg3d-68" value="" style="endArrow=none;html=1;rounded=0;exitX=0.5;exitY=0;exitDx=0;exitDy=0;" parent="1" source="pgVwH1cybltZk0aZfg3d-69" edge="1">
          <mxGeometry width="50" height="50" relative="1" as="geometry">
            <mxPoint x="516" y="430" as="sourcePoint" />
            <mxPoint x="542" y="390" as="targetPoint" />
          </mxGeometry>
        </mxCell>
        <mxCell id="pgVwH1cybltZk0aZfg3d-69" value="b=8" style="ellipse;whiteSpace=wrap;html=1;aspect=fixed;" parent="1" vertex="1">
          <mxGeometry x="466" y="420" width="30" height="30" as="geometry" />
        </mxCell>
        <mxCell id="pgVwH1cybltZk0aZfg3d-80" value="" style="edgeStyle=orthogonalEdgeStyle;rounded=0;orthogonalLoop=1;jettySize=auto;html=1;" parent="1" source="pgVwH1cybltZk0aZfg3d-70" target="pgVwH1cybltZk0aZfg3d-69" edge="1">
          <mxGeometry relative="1" as="geometry" />
        </mxCell>
        <mxCell id="pgVwH1cybltZk0aZfg3d-70" value="tree[7][b]=8" style="rounded=0;whiteSpace=wrap;html=1;fillColor=#dae8fc;strokeColor=#6c8ebf;" parent="1" vertex="1">
          <mxGeometry x="407" y="490" width="100" height="30" as="geometry" />
        </mxCell>
        <mxCell id="pgVwH1cybltZk0aZfg3d-71" value="c=10" style="ellipse;whiteSpace=wrap;html=1;aspect=fixed;" parent="1" vertex="1">
          <mxGeometry x="576" y="420" width="30" height="30" as="geometry" />
        </mxCell>
        <mxCell id="pgVwH1cybltZk0aZfg3d-72" value="" style="endArrow=none;html=1;rounded=0;entryX=0;entryY=1;entryDx=0;entryDy=0;" parent="1" target="pgVwH1cybltZk0aZfg3d-56" edge="1">
          <mxGeometry width="50" height="50" relative="1" as="geometry">
            <mxPoint x="350" y="310" as="sourcePoint" />
            <mxPoint x="360" y="270" as="targetPoint" />
          </mxGeometry>
        </mxCell>
        <mxCell id="pgVwH1cybltZk0aZfg3d-73" value="b=9" style="ellipse;whiteSpace=wrap;html=1;aspect=fixed;" parent="1" vertex="1">
          <mxGeometry x="330" y="300" width="30" height="30" as="geometry" />
        </mxCell>
        <mxCell id="pgVwH1cybltZk0aZfg3d-74" value="c=10" style="ellipse;whiteSpace=wrap;html=1;aspect=fixed;" parent="1" vertex="1">
          <mxGeometry x="420" y="230" width="30" height="30" as="geometry" />
        </mxCell>
        <mxCell id="pgVwH1cybltZk0aZfg3d-76" value="" style="endArrow=none;html=1;rounded=0;entryX=0;entryY=1;entryDx=0;entryDy=0;" parent="1" edge="1">
          <mxGeometry width="50" height="50" relative="1" as="geometry">
            <mxPoint x="460" y="310" as="sourcePoint" />
            <mxPoint x="442" y="260" as="targetPoint" />
          </mxGeometry>
        </mxCell>
        <mxCell id="pgVwH1cybltZk0aZfg3d-77" value="b=11" style="ellipse;whiteSpace=wrap;html=1;aspect=fixed;" parent="1" vertex="1">
          <mxGeometry x="450" y="310" width="30" height="30" as="geometry" />
        </mxCell>
        <mxCell id="pgVwH1cybltZk0aZfg3d-83" value="" style="edgeStyle=orthogonalEdgeStyle;rounded=0;orthogonalLoop=1;jettySize=auto;html=1;" parent="1" source="pgVwH1cybltZk0aZfg3d-81" target="pgVwH1cybltZk0aZfg3d-71" edge="1">
          <mxGeometry relative="1" as="geometry" />
        </mxCell>
        <mxCell id="pgVwH1cybltZk0aZfg3d-81" value="tree[7][c]=10" style="rounded=0;whiteSpace=wrap;html=1;fillColor=#dae8fc;strokeColor=#6c8ebf;" parent="1" vertex="1">
          <mxGeometry x="551" y="490" width="100" height="30" as="geometry" />
        </mxCell>
        <mxCell id="pgVwH1cybltZk0aZfg3d-84" value="tree[0][a]=1" style="rounded=0;whiteSpace=wrap;html=1;fillColor=#dae8fc;strokeColor=#6c8ebf;" parent="1" vertex="1">
          <mxGeometry x="296" y="165" width="64" height="20" as="geometry" />
        </mxCell>
        <mxCell id="pgVwH1cybltZk0aZfg3d-85" value="tree[0][d]=7" style="rounded=0;whiteSpace=wrap;html=1;fillColor=#dae8fc;strokeColor=#6c8ebf;" parent="1" vertex="1">
          <mxGeometry x="420" y="165" width="70" height="20" as="geometry" />
        </mxCell>
        <mxCell id="kCG2lCmm0po1P8dxLjdn-1" value="判断单词的原理：若判断abb（123）是不是单词，先用find找到abb确保有这一段，再用一个bool数组记录flag[3]=true，标记有该单词&lt;br&gt;如果出现abbb，没有flag，也会判断出有abb" style="rounded=0;whiteSpace=wrap;html=1;fillColor=#f8cecc;strokeColor=#b85450;" vertex="1" parent="1">
          <mxGeometry y="460" width="330" height="80" as="geometry" />
        </mxCell>
      </root>
    </mxGraphModel>
  </diagram>
</mxfile>
